<?xml version="1.0" encoding="utf-8"?>
<!-- Generator: Adobe Illustrator 19.2.1, SVG Export Plug-In . SVG Version: 6.00 Build 0)  -->
<svg version="1.1" id="Layer_1" xmlns="http://www.w3.org/2000/svg" xmlns:xlink="http://www.w3.org/1999/xlink" x="0px" y="0px"
	 viewBox="-720 -720 72 72" xml:space="preserve">
<style type="text/css">
	.st0{fill:#1C75BC;}
	.st1{fill:#FFFFFF;}
	.st2{fill:#74C9B3;}
	.st3{fill:#82A7BB;}
	.st4{fill:#E5AD44;}
</style>
<g>
	<path class="st0" d="M150.4,346.3c0-0.9,0.8-1.7,1.8-1.7h6.6c1,0,1.8,0.8,1.8,1.7v19.3l18.9-20.3c0.3-0.4,0.8-0.7,1.4-0.7h7.5
		c1.4,0,2.2,1.5,1.2,2.6l-19.6,21.1l21.1,24c0.8,0.9,0.2,2.5-1.4,2.5h-8.2c-0.8,0-1.2-0.3-1.4-0.5l-19.6-23.1v21.9
		c0,0.9-0.8,1.7-1.8,1.7h-6.6c-1.1,0-1.8-0.8-1.8-1.7V346.3z"/>
	<path class="st0" d="M218.2,345.2c0-0.7,0.7-1.3,1.4-1.3h1.1c0.5,0,0.9,0.1,1.3,0.5l30.7,31.2h0.2V346c0-0.7,0.6-1.4,1.4-1.4h6.9
		c0.8,0,1.4,0.6,1.4,1.4v48.2c0,0.7-0.7,1.3-1.4,1.3h-1.1c-0.5,0-0.9-0.1-1.3-0.5l-30.8-32.4h-0.2v30.8c0,0.7-0.6,1.4-1.4,1.4h-6.8
		c-0.8,0-1.4-0.6-1.4-1.4V345.2z"/>
	<path class="st0" d="M380.8,345c0.1-0.6,0.5-1.1,1.4-1.1h1.2c0.6,0,1.1,0.3,1.3,0.7l16.5,33.8c0.2,0,0.2,0,0.2,0l16.5-33.8
		c0.2-0.4,0.6-0.7,1.3-0.7h1.2c0.8,0,1.3,0.5,1.4,1.1l8.9,48.1c0.2,1-0.4,1.6-1.4,1.6h-6.8c-0.7,0-1.3-0.6-1.4-1.1l-4.4-27.2
		c-0.1,0-0.2,0-0.2,0l-13.2,28.2c-0.2,0.4-0.6,0.8-1.3,0.8h-1.4c-0.7,0-1.1-0.4-1.3-0.8L386,366.6c0,0-0.2,0-0.2,0l-4.4,27.2
		c-0.1,0.5-0.7,1.1-1.4,1.1h-6.8c-1,0-1.6-0.6-1.4-1.6L380.8,345z"/>
	<path class="st0" d="M483.6,343.9c15,0,27.1,11.5,27.1,25.9c0,14.3-12,25.7-27.1,25.7c-15,0-27-11.4-27-25.7
		C456.6,355.4,468.6,343.9,483.6,343.9z M483.6,386.2c9.5,0,17.3-7.4,17.3-16.4c0-9-7.8-16.5-17.3-16.5c-9.5,0-17.2,7.5-17.2,16.5
		C466.4,378.8,474.2,386.2,483.6,386.2z"/>
	<path class="st0" d="M537.8,389.9c-0.8-0.6-1.1-1-0.4-2.1l2.7-4.4c0.6-1,1.9-1,2.6-0.5c3.1,2.2,6.5,4.4,11.4,4.4
		c3.9,0,6.8-2.4,6.8-5.5c0-3.7-3.2-6.2-9.5-8.6c-7.1-2.7-14.1-7-14.1-15.5c0-6.4,5-13.8,16.9-13.8c7.7,0,13.5,3.7,15,4.8
		c0.8,0.4,1,1.6,0.5,2.4l-2.9,4.1c-0.6,0.9-1.7,1.4-2.6,0.9c-3.2-1.9-6.3-3.9-10.5-3.9c-4.3,0-6.6,2.3-6.6,5c0,3.4,2.8,5.7,8.9,8
		c7.3,2.8,15.7,6.9,15.7,16.2c0,7.4-6.7,14.2-17.3,14.2C544.8,395.5,539.9,391.7,537.8,389.9z"/>
	<g>
		<path class="st0" d="M322.8,320.8L322.8,320.8c-1.4,0-2.6-1.2-2.6-2.6v-1.3c0-0.7-0.6-1.2-1.2-1.2s-1.2,0.6-1.2,1.2v1.3
			c0,1.4-1.2,2.6-2.6,2.6l0,0c-0.7,0-1.2,0.6-1.2,1.2s0.6,1.2,1.2,1.2l0,0c1.4,0,2.6,1.2,2.6,2.6v1.3c0,0.7,0.6,1.2,1.2,1.2
			s1.2-0.6,1.2-1.2v-1.3c0-1.4,1.2-2.6,2.6-2.6h0c0.7,0,1.2-0.6,1.2-1.2S323.5,320.8,322.8,320.8z"/>
		<g>
			<path class="st0" d="M354.4,368.7l-7.7-4.4c-0.8-3.8-2.4-7.3-4.7-10.3c0.1-0.2,0.2-0.4,0.2-0.7l0.8-5.4c0.1-0.7-0.1-1.4-0.7-1.8
				c-0.4-0.4-0.9-0.6-1.4-0.6c-0.2,0-0.3,0-0.5,0.1l-5.3,1.2c-0.2,0.1-0.4,0.1-0.6,0.3c-3.1-2-6.6-3.4-10.3-4l-4.3-7.5
				c-0.4-0.7-1.6-0.7-2,0l-4.3,7.5c-3.8,0.7-7.3,2.1-10.4,4c-0.2-0.1-0.4-0.2-0.6-0.3l-5.3-1.2c-0.2,0-0.3-0.1-0.5-0.1
				c-0.5,0-1,0.2-1.4,0.6c-0.5,0.5-0.8,1.2-0.7,1.8l0.8,5.4c0,0.2,0.1,0.4,0.2,0.5c0,0,0,0.1,0.1,0.1c-2.3,3-3.9,6.5-4.7,10.3
				l-7.7,4.4c-0.4,0.2-0.6,0.6-0.6,1c0,0.4,0.2,0.8,0.6,1l7.7,4.4c0.8,3.9,2.4,7.4,4.7,10.5c-0.1,0.2-0.1,0.3-0.1,0.5l-0.8,5.4
				c-0.1,0.7,0.1,1.4,0.7,1.8c0.4,0.4,0.9,0.6,1.4,0.6c0.2,0,0.3,0,0.5-0.1l5.3-1.2c0.1,0,0.3-0.1,0.4-0.1c0,0,0.1,0,0.1-0.1
				c3.1,2,6.7,3.3,10.5,4l4.3,7.5c0.2,0.4,0.6,0.6,1,0.6s0.8-0.2,1-0.6l4.3-7.5c3.8-0.7,7.3-2.1,10.4-4c0.2,0.1,0.4,0.2,0.6,0.3
				l5.3,1.2c0.2,0,0.3,0.1,0.5,0.1c0.5,0,1-0.2,1.4-0.6c0.5-0.5,0.8-1.2,0.7-1.8l-0.8-5.4c0-0.1-0.1-0.3-0.1-0.4
				c0-0.1-0.1-0.1-0.1-0.2c2.3-3,3.9-6.6,4.7-10.4l7.7-4.4c0.4-0.2,0.6-0.6,0.6-1C355,369.3,354.8,368.9,354.4,368.7z M318.9,392.7
				c-13.5,0-24.1-10.1-24.1-22.9c0-12.7,10.8-23.1,24.1-23.1c13.4,0,24.2,10.3,24.2,23.1C343.1,382.6,332.5,392.7,318.9,392.7z"/>
			<path class="st0" d="M327.8,375.8l-5.7-8.7c-0.2-0.2-0.3-0.4-0.6-0.6l-8.7-5.7c-0.8-0.5-1.8-0.4-2.5,0.3
				c-0.7,0.7-0.8,1.7-0.3,2.5l5.7,8.7c0.2,0.2,0.3,0.4,0.6,0.6l8.7,5.7c0.3,0.2,0.7,0.3,1.1,0.3c0.5,0,1-0.2,1.4-0.6
				C328.3,377.7,328.4,376.6,327.8,375.8z M317.4,371.2l-5.7-8.7l8.7,5.7L317.4,371.2z"/>
		</g>
	</g>
</g>
</svg>
